<svg width="24" height="24" viewBox="0 0 24 24" fill="none" xmlns="http://www.w3.org/2000/svg">
<path d="M6.937 3.59839C7.59076 3.59839 8.21774 3.8592 8.68002 4.32346C9.14229 4.78771 9.402 5.41737 9.402 6.07392C9.402 6.73048 9.14229 7.36014 8.68002 7.82439C8.21774 8.28864 7.59076 8.54946 6.937 8.54946C6.28324 8.54946 5.65626 8.28864 5.19398 7.82439C4.7317 7.36014 4.472 6.73048 4.472 6.07392C4.472 5.41737 4.7317 4.78771 5.19398 4.32346C5.65626 3.8592 6.28324 3.59839 6.937 3.59839ZM18.276 3.59839C18.9298 3.59839 19.5567 3.8592 20.019 4.32346C20.4813 4.78771 20.741 5.41737 20.741 6.07392C20.741 6.73048 20.4813 7.36014 20.019 7.82439C19.5567 8.28864 18.9298 8.54946 18.276 8.54946C17.6222 8.54946 16.9953 8.28864 16.533 7.82439C16.0707 7.36014 15.811 6.73048 15.811 6.07392C15.811 5.41737 16.0707 4.78771 16.533 4.32346C16.9953 3.8592 17.6222 3.59839 18.276 3.59839ZM2.5 12.8414C2.5 11.0188 3.97284 9.53967 5.78769 9.53967H7.10339C7.59331 9.53967 8.05857 9.64798 8.47762 9.83983C8.43757 10.0626 8.41908 10.2947 8.41908 10.5299C8.41908 11.712 8.93673 12.7733 9.75326 13.5005C9.7471 13.5005 9.74094 13.5005 9.73169 13.5005H3.15631C2.7958 13.5005 2.5 13.2035 2.5 12.8414ZM14.9883 13.5005C14.9821 13.5005 14.976 13.5005 14.9667 13.5005C15.7863 12.7733 16.3009 11.712 16.3009 10.5299C16.3009 10.2947 16.2793 10.0657 16.2424 9.83983C16.6614 9.64488 17.1267 9.53967 17.6166 9.53967H18.9323C20.7472 9.53967 22.22 11.0188 22.22 12.8414C22.22 13.2066 21.9242 13.5005 21.5637 13.5005H14.9914H14.9883ZM9.402 10.5299C9.402 9.74202 9.71364 8.98643 10.2684 8.42932C10.8231 7.87222 11.5755 7.55924 12.36 7.55924C13.1445 7.55924 13.8969 7.87222 14.4516 8.42932C15.0064 8.98643 15.318 9.74202 15.318 10.5299C15.318 11.3177 15.0064 12.0733 14.4516 12.6304C13.8969 13.1875 13.1445 13.5005 12.36 13.5005C11.5755 13.5005 10.8231 13.1875 10.2684 12.6304C9.71364 12.0733 9.402 11.3177 9.402 10.5299ZM6.444 18.6156C6.444 16.3381 8.28351 14.4907 10.5513 14.4907H14.1656C16.4365 14.4907 18.276 16.3381 18.276 18.6156C18.276 19.0705 17.9093 19.4418 17.4533 19.4418H7.26361C6.81067 19.4418 6.44092 19.0736 6.44092 18.6156H6.444Z" fill="#707070"/>
</svg>
