<svg width="128" height="58" viewBox="0 0 128 58" fill="none" xmlns="http://www.w3.org/2000/svg">
<path d="M9.45015 29.2382C9.45015 37.8647 23.6976 46.5392 41.7463 51.2794C30.7372 50.1258 0.477051 42.6544 0.477051 29.2382C0.477051 20.0643 20.8126 10.5297 34.4436 6.49023C22.2001 11.9807 9.45015 20.2435 9.45015 29.2382Z" fill="url(#paint0_linear_1350_346)"/>
<path d="M13.8495 29.2381C13.8495 42.4995 46.4777 52.6822 75.0996 57.5947C45.4819 49.1817 22.8976 39.741 22.8976 29.2381C22.8976 17.9178 36.7504 7.80991 53.6886 0.432373C53.6886 0.432373 13.8511 12.0682 13.8511 29.2381H13.8495Z" fill="url(#paint1_linear_1350_346)"/>
<path d="M118.552 29.2382C118.552 37.8647 104.304 46.5392 86.2556 51.2794C97.2647 50.1258 127.524 42.6544 127.524 29.2382C127.524 20.0643 107.191 10.5297 93.5583 6.49023C105.803 11.9807 118.553 20.2435 118.552 29.2382Z" fill="url(#paint2_linear_1350_346)"/>
<path d="M114.457 29.2381C114.457 42.4995 81.8302 52.6822 53.2068 57.5947C82.826 49.1817 105.41 39.741 105.41 29.2381C105.41 17.9178 91.5559 7.80991 74.6177 0.432373C74.6177 0.432373 114.457 12.0682 114.457 29.2381Z" fill="url(#paint3_linear_1350_346)"/>
<path d="M65.2546 22.5131C65.3907 22.2935 65.4366 22.1121 65.331 21.9512C65.2163 21.7781 65.0495 21.7995 64.6075 21.7918H61.9045C61.2667 21.7918 60.566 21.9131 60.1163 22.4132C59.7293 22.8479 59.4479 23.3655 59.3041 23.6767L58.8253 23.5501C59.0318 22.8654 59.197 22.2691 59.4846 21.1697L68.268 21.1689L68.4585 21.4571C68.1105 22.0129 63.0181 30.185 62.0085 31.793C61.877 32.002 61.6185 32.4076 61.8066 32.7171C61.9382 32.9329 62.2502 32.9756 62.5845 32.9756H65.0863C65.5513 32.9756 66.3284 32.9047 66.9303 32.4678C67.4405 32.0996 67.7984 31.5574 68.1166 30.8315L68.5755 30.9543C68.297 31.8884 67.9376 33.0274 67.7326 33.613H58.6907L58.501 33.3111C58.8283 32.7842 64.9089 23.0751 65.2546 22.5131ZM37.6132 21.74C39.4365 21.74 40.2549 23.1284 40.2549 24.6243C40.2549 25.89 39.9 26.542 39.4044 26.9331C38.8583 27.338 38.2403 27.4173 37.5504 27.4173H36.6021C36.3344 27.4173 36.2028 27.2755 36.2028 26.94V22.3347C36.2028 21.7675 36.6357 21.74 37.6132 21.74ZM36.2028 28.4558C36.2028 28.1203 36.3344 27.9792 36.6021 27.9792H37.2017C37.5565 27.9792 37.679 28.1675 37.9542 28.5793C38.5325 29.4218 39.2958 30.7141 39.7822 31.4019C41.1116 33.2958 42.5449 33.7602 44.1434 33.7602C44.5013 33.7602 44.7905 33.716 44.9679 33.671V33.3949C44.4539 33.3599 43.9705 33.1662 43.657 32.8864C42.3781 31.8052 41.2446 30.1194 39.7424 27.6941C39.6445 27.5568 39.6813 27.5431 39.8281 27.4989C40.8576 27.1877 42.4836 26.3452 42.4836 24.3453C42.4836 22.7708 41.5536 22.0457 40.5685 21.5952C39.6813 21.1895 38.5983 21.1696 37.4464 21.1696H32.8145V21.6325L33.2643 21.6995C34.0735 21.8231 34.1668 22.1464 34.1668 23.7704V31.0092C34.1668 32.6333 34.0735 32.8269 33.2643 33.0373L32.8145 33.1487V33.613H37.5551V33.1487L37.1053 33.0373C36.2961 32.8269 36.2028 32.6333 36.2028 31.0092L36.2028 28.4558ZM49.8277 31.0092C49.8277 32.6333 49.7344 32.8269 48.9267 33.0373L48.4754 33.1487V33.613H53.3597V33.1487L52.9085 33.0373C52.0993 32.8269 52.0075 32.6333 52.0075 31.0092V23.7704C52.0075 22.1464 52.0993 21.8231 52.9085 21.6995C52.9085 21.6995 53.3597 21.6325 53.3597 21.6347V21.1696H48.4754C48.4754 21.1696 48.4754 21.6347 48.4754 21.6325L48.9267 21.6995C49.7344 21.8231 49.8277 22.1464 49.8277 23.7704V31.0092ZM82.4084 31.1121L79.0071 21.1696H77.5654C77.5654 21.1696 73.6556 31.3043 73.3275 32.1628C73.2043 32.4823 73.0055 32.8429 72.4303 32.9832C72.0372 33.08 71.5859 33.1487 71.5859 33.1487V33.613H75.3933V33.1487L74.965 33.0991C74.3187 33.0244 74.0341 33.0397 74.3806 32.0126C74.5023 31.6451 75.2709 29.4202 75.3581 29.1762C75.4453 28.9353 75.7268 28.7409 75.9838 28.7409H78.9085C79.1655 28.7409 79.4408 28.9369 79.5234 29.1801L80.6776 32.554C80.761 32.7972 80.6218 33.0183 80.3663 33.0472L79.4891 33.1487V33.613H84.1676V33.1487C84.1676 33.1487 84.1339 33.141 83.6108 33.0373C83.0892 32.9336 82.953 32.7103 82.4084 31.1121ZM77.437 23.4883C77.4767 23.3785 77.541 23.3793 77.5776 23.4898L78.9758 27.5781C79.0591 27.8214 78.9177 28.0181 78.6607 28.0181H76.2468C75.9899 28.0181 75.8522 27.8229 75.9409 27.5812C76.5956 25.7924 77.2274 24.061 77.437 23.4883ZM95.5377 21.9024C94.6658 21.3679 93.3212 21.1689 91.7747 21.1689L87.2912 21.1697V21.6325L87.7425 21.6995C88.5517 21.8231 88.6434 22.1464 88.6434 23.7704V31.0092C88.6434 32.6333 88.5517 32.8269 87.7425 33.0373L87.2912 33.1487V33.613H92.0363V33.1487L91.585 33.0373C90.7758 32.8269 90.684 32.6333 90.684 31.0092V29.023C90.684 28.6883 90.8156 28.5457 91.0833 28.5457C91.2592 28.5457 91.9751 28.5495 92.4171 28.5236C93.6837 28.4481 94.4838 28.1988 95.2914 27.7779C96.1327 27.3403 97.215 26.4223 97.215 24.7136C97.215 23.4228 96.4158 22.443 95.5377 21.9024ZM92.4554 27.8709C92.1364 27.9304 91.8206 27.9395 91.5346 27.9395L91.0833 27.938C90.8156 27.938 90.684 27.797 90.684 27.4608V22.2798C90.684 21.7675 91.1154 21.74 92.0944 21.74C94.0676 21.74 94.984 22.9103 94.984 24.7334C94.984 26.3544 94.6091 27.4683 92.4554 27.8709Z" fill="url(#paint4_linear_1350_346)"/>
<path d="M65.2546 22.5131C65.3907 22.2935 65.4366 22.1121 65.331 21.9512C65.2163 21.7781 65.0495 21.7995 64.6075 21.7918H61.9045C61.2667 21.7918 60.566 21.9131 60.1163 22.4132C59.7293 22.8479 59.4479 23.3655 59.3041 23.6767L58.8253 23.5501C59.0318 22.8654 59.197 22.2691 59.4846 21.1697L68.268 21.1689L68.4585 21.4571C68.1105 22.0129 63.0181 30.185 62.0085 31.793C61.877 32.002 61.6185 32.4076 61.8066 32.7171C61.9382 32.9329 62.2502 32.9756 62.5845 32.9756H65.0863C65.5513 32.9756 66.3284 32.9047 66.9303 32.4678C67.4405 32.0996 67.7984 31.5574 68.1166 30.8315L68.5755 30.9543C68.297 31.8884 67.9376 33.0274 67.7326 33.613H58.6907L58.501 33.3111C58.8283 32.7842 64.9089 23.0751 65.2546 22.5131ZM37.6132 21.74C39.4365 21.74 40.2549 23.1284 40.2549 24.6243C40.2549 25.89 39.9 26.542 39.4044 26.9331C38.8583 27.338 38.2403 27.4173 37.5504 27.4173H36.6021C36.3344 27.4173 36.2028 27.2755 36.2028 26.94V22.3347C36.2028 21.7675 36.6357 21.74 37.6132 21.74ZM36.2028 28.4558C36.2028 28.1203 36.3344 27.9792 36.6021 27.9792H37.2017C37.5565 27.9792 37.679 28.1675 37.9542 28.5793C38.5325 29.4218 39.2958 30.7141 39.7822 31.4019C41.1116 33.2958 42.5449 33.7602 44.1434 33.7602C44.5013 33.7602 44.7905 33.716 44.9679 33.671V33.3949C44.4539 33.3599 43.9705 33.1662 43.657 32.8864C42.3781 31.8052 41.2446 30.1194 39.7424 27.6941C39.6445 27.5568 39.6813 27.5431 39.8281 27.4989C40.8576 27.1877 42.4836 26.3452 42.4836 24.3453C42.4836 22.7708 41.5536 22.0457 40.5685 21.5952C39.6813 21.1895 38.5983 21.1696 37.4464 21.1696H32.8145V21.6325L33.2643 21.6995C34.0735 21.8231 34.1668 22.1464 34.1668 23.7704V31.0092C34.1668 32.6333 34.0735 32.8269 33.2643 33.0373L32.8145 33.1487V33.613H37.5551V33.1487L37.1053 33.0373C36.2961 32.8269 36.2028 32.6333 36.2028 31.0092L36.2028 28.4558ZM49.8277 31.0092C49.8277 32.6333 49.7344 32.8269 48.9267 33.0373L48.4754 33.1487V33.613H53.3597V33.1487L52.9085 33.0373C52.0993 32.8269 52.0075 32.6333 52.0075 31.0092V23.7704C52.0075 22.1464 52.0993 21.8231 52.9085 21.6995C52.9085 21.6995 53.3597 21.6325 53.3597 21.6347V21.1696H48.4754C48.4754 21.1696 48.4754 21.6347 48.4754 21.6325L48.9267 21.6995C49.7344 21.8231 49.8277 22.1464 49.8277 23.7704V31.0092ZM82.4084 31.1121L79.0071 21.1696H77.5654C77.5654 21.1696 73.6556 31.3043 73.3275 32.1628C73.2043 32.4823 73.0055 32.8429 72.4303 32.9832C72.0372 33.08 71.5859 33.1487 71.5859 33.1487V33.613H75.3933V33.1487L74.965 33.0991C74.3187 33.0244 74.0341 33.0397 74.3806 32.0126C74.5023 31.6451 75.2709 29.4202 75.3581 29.1762C75.4453 28.9353 75.7268 28.7409 75.9838 28.7409H78.9085C79.1655 28.7409 79.4408 28.9369 79.5234 29.1801L80.6776 32.554C80.761 32.7972 80.6218 33.0183 80.3663 33.0472L79.4891 33.1487V33.613H84.1676V33.1487C84.1676 33.1487 84.1339 33.141 83.6108 33.0373C83.0892 32.9336 82.953 32.7103 82.4084 31.1121ZM77.437 23.4883C77.4767 23.3785 77.541 23.3793 77.5776 23.4898L78.9758 27.5781C79.0591 27.8214 78.9177 28.0181 78.6607 28.0181H76.2468C75.9899 28.0181 75.8522 27.8229 75.9409 27.5812C76.5956 25.7924 77.2274 24.061 77.437 23.4883ZM95.5377 21.9024C94.6658 21.3679 93.3212 21.1689 91.7747 21.1689L87.2912 21.1697V21.6325L87.7425 21.6995C88.5517 21.8231 88.6434 22.1464 88.6434 23.7704V31.0092C88.6434 32.6333 88.5517 32.8269 87.7425 33.0373L87.2912 33.1487V33.613H92.0363V33.1487L91.585 33.0373C90.7758 32.8269 90.684 32.6333 90.684 31.0092V29.023C90.684 28.6883 90.8156 28.5457 91.0833 28.5457C91.2592 28.5457 91.9751 28.5495 92.4171 28.5236C93.6837 28.4481 94.4838 28.1988 95.2914 27.7779C96.1327 27.3403 97.215 26.4223 97.215 24.7136C97.215 23.4228 96.4158 22.443 95.5377 21.9024ZM92.4554 27.8709C92.1364 27.9304 91.8206 27.9395 91.5346 27.9395L91.0833 27.938C90.8156 27.938 90.684 27.797 90.684 27.4608V22.2798C90.684 21.7675 91.1154 21.74 92.0944 21.74C94.0676 21.74 94.984 22.9103 94.984 24.7334C94.984 26.3544 94.6091 27.4683 92.4554 27.8709Z" fill="url(#paint5_linear_1350_346)"/>
<defs>
<linearGradient id="paint0_linear_1350_346" x1="21.1117" y1="51.2794" x2="21.1117" y2="6.49023" gradientUnits="userSpaceOnUse">
<stop stop-color="#9D6F30"/>
<stop offset="0.10985" stop-color="#A4772F"/>
<stop offset="0.28893" stop-color="#B9902E"/>
<stop offset="0.5" stop-color="#D8B52D"/>
<stop offset="0.51438" stop-color="#D4B12D"/>
<stop offset="0.63827" stop-color="#BC942E"/>
<stop offset="0.76153" stop-color="#AA7F2F"/>
<stop offset="0.88288" stop-color="#A0732F"/>
<stop offset="1" stop-color="#9D6F30"/>
</linearGradient>
<linearGradient id="paint1_linear_1350_346" x1="44.4746" y1="57.5947" x2="44.4746" y2="0.432373" gradientUnits="userSpaceOnUse">
<stop stop-color="#9D6F30"/>
<stop offset="0.10985" stop-color="#A4772F"/>
<stop offset="0.28893" stop-color="#B9902E"/>
<stop offset="0.5" stop-color="#D8B52D"/>
<stop offset="0.51438" stop-color="#D4B12D"/>
<stop offset="0.63827" stop-color="#BC942E"/>
<stop offset="0.76153" stop-color="#AA7F2F"/>
<stop offset="0.88288" stop-color="#A0732F"/>
<stop offset="1" stop-color="#9D6F30"/>
</linearGradient>
<linearGradient id="paint2_linear_1350_346" x1="106.89" y1="51.2794" x2="106.89" y2="6.49023" gradientUnits="userSpaceOnUse">
<stop stop-color="#9D6F30"/>
<stop offset="0.10985" stop-color="#A4772F"/>
<stop offset="0.28893" stop-color="#B9902E"/>
<stop offset="0.5" stop-color="#D8B52D"/>
<stop offset="0.51438" stop-color="#D4B12D"/>
<stop offset="0.63827" stop-color="#BC942E"/>
<stop offset="0.76153" stop-color="#AA7F2F"/>
<stop offset="0.88288" stop-color="#A0732F"/>
<stop offset="1" stop-color="#9D6F30"/>
</linearGradient>
<linearGradient id="paint3_linear_1350_346" x1="83.8318" y1="57.5947" x2="83.8318" y2="0.432373" gradientUnits="userSpaceOnUse">
<stop stop-color="#9D6F30"/>
<stop offset="0.10985" stop-color="#A4772F"/>
<stop offset="0.28893" stop-color="#B9902E"/>
<stop offset="0.5" stop-color="#D8B52D"/>
<stop offset="0.51438" stop-color="#D4B12D"/>
<stop offset="0.63827" stop-color="#BC942E"/>
<stop offset="0.76153" stop-color="#AA7F2F"/>
<stop offset="0.88288" stop-color="#A0732F"/>
<stop offset="1" stop-color="#9D6F30"/>
</linearGradient>
<linearGradient id="paint4_linear_1350_346" x1="65.0148" y1="33.7601" x2="65.0148" y2="21.1689" gradientUnits="userSpaceOnUse">
<stop stop-color="#AE812C"/>
<stop offset="0.3" stop-color="#B88C29"/>
<stop offset="1" stop-color="#D8B52D"/>
</linearGradient>
<linearGradient id="paint5_linear_1350_346" x1="65.0148" y1="33.7601" x2="65.0148" y2="21.1689" gradientUnits="userSpaceOnUse">
<stop stop-color="#AD802B"/>
<stop offset="0.29091" stop-color="#B88B28"/>
<stop offset="1" stop-color="#D7B42D"/>
</linearGradient>
</defs>
</svg>
