<svg width="24" height="24" viewBox="0 0 24 24" fill="none" xmlns="http://www.w3.org/2000/svg">
<path d="M11.9727 4.5C13.2185 4.50026 14.2284 5.51002 14.2285 6.75586V8.28809C14.2285 8.65628 13.9297 8.95508 13.5615 8.95508C13.1934 8.955 12.8945 8.65623 12.8945 8.28809V6.75586C12.8944 6.2464 12.4821 5.83326 11.9727 5.83301H6.75586C6.24633 5.83316 5.83317 6.24633 5.83301 6.75586V17.3652C5.85467 17.8787 6.2805 18.2684 6.78125 18.249H12.0166C12.5263 18.2359 12.9278 17.8156 12.918 17.3105V15.7598C12.918 15.3916 13.2168 15.0928 13.585 15.0928C13.953 15.093 14.251 15.3917 14.251 15.7598V17.291C14.2716 18.5365 13.278 19.5576 12.0371 19.582H6.81934C5.57399 19.623 4.54049 18.6436 4.5 17.3994V6.75586C4.50016 5.50995 5.50995 4.50016 6.75586 4.5H11.9727ZM15.4629 9.01074C15.7328 8.76028 16.1548 8.77603 16.4053 9.0459L18.7002 11.5186C18.8558 11.6404 18.9577 11.8281 18.958 12.041C18.9581 12.1479 18.9294 12.2473 18.8848 12.3369C18.8563 12.3968 18.8217 12.4549 18.7744 12.5059L16.4053 15.0596C16.1548 15.3294 15.7328 15.3451 15.4629 15.0947C15.193 14.8443 15.1773 14.4222 15.4277 14.1523L16.7666 12.709L9.86035 12.7188C9.49239 12.7191 9.19404 12.4217 9.19336 12.0537C9.19289 11.6857 9.49042 11.3865 9.8584 11.3857L16.749 11.377L15.4277 9.95215C15.1774 9.68232 15.1932 9.26119 15.4629 9.01074Z" fill="#212121"/>
</svg>
