<svg width="24" height="24" viewBox="0 0 24 24" fill="none" xmlns="http://www.w3.org/2000/svg">
<path d="M1.05575 19.6092L3.45699 15.4565H20.543L22.9442 19.6092C23.1966 20.0457 22.5689 20.4147 21.5314 20.4147H2.46865C1.43114 20.4147 0.803361 20.0457 1.05575 19.6092ZM13.9517 19.514L13.4631 18.4059H10.5369L10.0483 19.514H13.9517ZM19.8524 17.1711L19.3603 16.0572H4.63964L4.14749 17.1711H19.8524Z" fill="#707070"/>
<path d="M4.86383 4H19.1367C19.9135 4 20.5432 4.62973 20.5432 5.40655V15.0923H3.45728V5.40655C3.45728 4.62973 4.08701 4 4.86383 4ZM4.82216 14.2735H19.1784V6.13494C19.1784 5.67768 18.8078 5.30705 18.3505 5.30705H5.65005C5.19279 5.30705 4.82216 5.67774 4.82216 6.13494V14.2735Z" fill="#707070"/>
</svg>
