<svg width="24" height="24" viewBox="0 0 24 24" fill="none" xmlns="http://www.w3.org/2000/svg">
<path d="M12 2C17.5153 2 22 6.46859 22 11.9932C21.9999 17.2613 17.9276 21.5772 12.7588 21.9648V22H12C6.47653 22 2.00001 17.5235 2 12C2 6.47617 6.48392 2.00001 12 2ZM9.62402 16.8691C8.42871 16.8691 7.24838 17.4361 6.39844 18.3701C7.81144 19.6136 9.6408 20.3953 11.6514 20.4766H12C14.289 20.4766 16.3637 19.5679 17.8896 18.0947C17.0691 17.3255 16.0136 16.8691 14.9434 16.8691H9.62402ZM12 3.5166C7.32075 3.51661 3.5166 7.31451 3.5166 12C3.5166 13.9915 4.20299 15.8223 5.35156 17.2695C6.45444 16.0994 7.99327 15.3525 9.62402 15.3525H14.9434C16.4195 15.3525 17.815 15.9664 18.8828 16.9482C19.8883 15.5539 20.4834 13.8438 20.4834 11.9932C20.4834 7.30842 16.68 3.5166 12 3.5166ZM12.0908 4.80469C14.7885 4.80469 16.999 6.96627 16.999 9.65137C16.9988 12.3363 14.7884 14.4971 12.0908 14.4971C9.39335 14.497 7.18382 12.3362 7.18359 9.65137C7.18359 6.96632 9.39321 4.80477 12.0908 4.80469ZM12.0908 6.32129C10.2094 6.32137 8.7002 7.82518 8.7002 9.65137C8.70043 11.4774 10.2095 12.9804 12.0908 12.9805C13.9722 12.9805 15.4822 11.4774 15.4824 9.65137C15.4824 7.82513 13.9723 6.32129 12.0908 6.32129Z" fill="#212121"/>
</svg>
